<svg width="16" height="16" viewBox="0 0 16 16" fill="none" xmlns="http://www.w3.org/2000/svg">
<path d="M14.7462 3.076C13.2368 1.204 10.8859 4.77835e-07 8.24643 5.93212e-07C3.6912 7.92327e-07 0.00619358 3.57 7.41026e-06 7.988C-0.00617876 12.412 3.68708 16 8.24643 16C10.8282 16 13.1316 14.85 14.6431 13.048C14.7009 12.978 14.6885 12.876 14.6163 12.82L13.5749 12.032C13.5048 11.978 13.4038 11.99 13.3461 12.056C13.21 12.218 13.0635 12.374 12.9089 12.524C12.308 13.1088 11.5958 13.5747 10.8117 13.896C10.0013 14.232 9.13726 14.4 8.24643 14.4C7.35559 14.4 6.49156 14.232 5.67909 13.898C4.89342 13.576 4.18817 13.114 3.58191 12.526C2.97565 11.938 2.4993 11.254 2.1673 10.492C1.82292 9.702 1.6497 8.864 1.6497 8C1.6497 7.136 1.82292 6.298 2.1673 5.51C2.4993 4.748 2.97565 4.064 3.58191 3.476C4.18817 2.888 4.89342 2.426 5.67909 2.104C6.49156 1.77 7.35559 1.602 8.24643 1.602C9.13726 1.602 10.0013 1.77 10.8138 2.104C11.5979 2.42527 12.3101 2.89124 12.9109 3.476C13.1027 3.662 13.2821 3.858 13.4471 4.062L12.3727 4.876C12.3482 4.89443 12.3295 4.91921 12.3188 4.94748C12.3081 4.97576 12.3058 5.00639 12.3123 5.03585C12.3188 5.06531 12.3337 5.0924 12.3553 5.11401C12.3769 5.13562 12.4044 5.15087 12.4346 5.158L15.7794 5.95C15.8825 5.974 15.9835 5.898 15.9835 5.796L16 2.456C16 2.322 15.8412 2.246 15.734 2.33L14.7462 3.076Z" fill="white"/>
</svg>
